<svg id="Layer_1" xmlns="http://www.w3.org/2000/svg" viewBox="0 0 82.7 82.7"><style>.st0{fill:#fff}</style><path class="st0" d="M41.3 0C18.5 0 0 18.5 0 41.3c0 22.8 18.5 41.3 41.3 41.3 22.8 0 41.3-18.5 41.3-41.3C82.7 18.5 64.2 0 41.3 0zm0 77.3c-19.9 0-36-16.1-36-36s16.1-36 36-36 36 16.1 36 36-16.1 36-36 36z"/><path class="st0" d="M55.6 37.2h2.7v-5.3h5.4v-2.7h-5.4v-5.4h-2.7v5.4h-5.3v2.7h5.3zM35.6 63c9.3 0 12.9-4.9 12.9-8.9 0-3.3-1.2-5.4-4.9-8.2-3.8-2.7-4.7-4.3-1.1-7.1 2-1.6 3.4-3.7 3.4-6.2 0-2.8-1.1-5.3-3.3-6.6h3.1l2.6-2.7H36.7c-7.3 0-10.8 4.4-10.8 9.2 0 4.9 3.4 8.8 9.9 8.8-1 2.1-.6 4 1.1 5.3-11.2 0-13.6 4.9-13.6 8.7-.1 4.8 5.5 7.7 12.3 7.7zm-5.4-30.6c-.5-4.1 1.6-7.3 4.7-7.2 3.1.1 5.8 3.5 6.4 7.6.5 4.1-1.3 6.8-4.4 6.7-3.2-.1-6.2-3-6.7-7.1zm6 15.5c5.2 0 8.3 3.2 8.3 6.6 0 3.6-2.9 6.3-8.9 6.3-4.7 0-8.1-3-8.1-6.5.1-3.5 4-6.5 8.7-6.4z"/></svg>