<svg id="Layer_1" xmlns="http://www.w3.org/2000/svg" viewBox="0 0 82.7 82.7"><style>.st0{fill:#fff}</style><path class="st0" d="M41.3 0C18.5 0 0 18.5 0 41.3c0 22.8 18.5 41.3 41.3 41.3 22.8 0 41.3-18.5 41.3-41.3C82.7 18.5 64.2 0 41.3 0zm0 77.3c-19.9 0-36-16.1-36-36s16.1-36 36-36 36 16.1 36 36-16.1 36-36 36z"/><path class="st0" d="M23.8 33.2h7.9v25.5h-7.9z"/><ellipse class="st0" cx="27.7" cy="25.1" rx="4.7" ry="4.7"/><path class="st0" d="M44.3 45.3c0-3.6 1.7-5.7 4.8-5.7 2.9 0 4.3 2.1 4.3 5.7v13.4h7.9V42.5c0-6.8-3.9-10.1-9.3-10.1s-7.7 4.2-7.7 4.2v-3.4h-7.6v25.5h7.6V45.3z"/></svg>