<svg id="Layer_1" xmlns="http://www.w3.org/2000/svg" viewBox="0 0 82.7 82.7"><style>.st0{fill:#fff}</style><path class="st0" d="M41.3 0C18.5 0 0 18.5 0 41.3c0 22.8 18.5 41.3 41.3 41.3 22.8 0 41.3-18.5 41.3-41.3C82.7 18.5 64.2 0 41.3 0zm0 77.3c-19.9 0-36-16.1-36-36s16.1-36 36-36 36 16.1 36 36-16.1 36-36 36z"/><path class="st0" d="M22.9 56.2C26.6 58.6 31 60 35.7 60 51.2 60 60 46.9 59.4 35.1c1.6-1.2 3-2.6 4.2-4.3-1.5.7-3.1 1.1-4.8 1.3 1.7-1 3-2.7 3.7-4.6-1.6 1-3.4 1.7-5.3 2-1.5-1.6-3.7-2.6-6.1-2.6-5.4 0-9.3 5-8.1 10.3-6.9-.3-13.1-3.7-17.2-8.7-2.2 3.8-1.1 8.7 2.6 11.1-1.4 0-2.7-.4-3.8-1-.1 3.9 2.7 7.5 6.7 8.3-1.2.3-2.5.4-3.8.1 1.1 3.3 4.1 5.7 7.8 5.8-3.6 2.7-8 3.9-12.4 3.4z"/></svg>